#!OML:ASF E:/inclinewalkrobotboard/Project1/Captureday1/Session1/subject1.ASF
:FULLY-SPECIFIED
:DEGREES
238
root 0 0 0 1.8061222152431755 -10.23630479327089 0.9248654462929871
lowerback 0.11409153207187783 -1.5834039568282727 -2.6674625057433436
upperback -0.5006365052267868 -2.0656939237878884 1.9247865289003956
thorax -0.48258923635718265 -1.0310191582719446 3.4138794232115295
lowerneck -25.892812169987884 -1.889689139983672 -7.504258586380353
upperneck 23.350299641168846 -0.19240640296055933 2.5941209412921316
head 12.111766087649675 -0.5619997330355113 2.301731166949498
rclavicle -2.413493343430478E-15 -7.74844159570044E-16
rhumerus -31.193405678616077 -2.722516353354385 -81.93149947069222
rradius 31.405198384315455
rwrist 18.62510572071617
rhand -18.030333938447832 9.284925788770106
rfingers 7.125019999999932
rthumb 8.236206091239913 -20.47726216324922
lclavicle -4.150279729413707E-15 2.6036939993384316E-15
lhumerus -22.572190616859483 -3.051330968330362 92.43515397451303
lradius 62.08211490428316
lwrist 2.3114557047133992
lhand -28.343379762143243 20.836729538918398
lfingers 7.125020000000009
lthumb -1.7485953288811533 50.837101307304
rfemur 5.465809066344981 8.7634203607791 38.58160473891198
rtibia 20.488148781274155
rfoot -24.1422461597942 -7.888453931056797
rtoes 3.9003055938100504
lfemur -27.6231870275392 1.748289748987629 -11.416670464594135
ltibia 49.39650023661949
lfoot -4.049795378324832 -1.335767834854412
ltoes -6.4351369227859765
239
root 0 0 0 1.8109223328863704 -10.261080707096637 0.933458167768535
lowerback 0.057334349095533144 -1.5825538086567033 -2.6787155939788363
upperback -0.5134254744830006 -2.0669476860245606 1.8963927341893514
thorax -0.465485230533783 -1.0299871278206618 3.3885415210541114
lowerneck -25.919675901927594 -1.924194427590543 -7.532364232385721
upperneck 23.495112416868164 -0.24227653068254018 2.6205104470065312
head 12.167264933329859 -0.5869311113863969 2.309624259045775
rclavicle -3.4766236096965787E-15 -1.4367494560561207E-15
rhumerus -30.612898300457346 -1.2131874190320842 -82.36630787579699
rradius 31.87102398599422
rwrist 18.20817297905933
rhand -18.358941897863243 9.32796650792396
rfingers 7.125019999999937
rthumb 7.919016248511424 -20.446534714993163
lclavicle -4.951736843110091E-15 2.4311686547965242E-15
lhumerus -22.26631885043093 -2.5485055135910035 92.27749677671557
lradius 61.82462042676514
lwrist 2.288298274959214
lhand -28.32232535336418 20.76541226887338
lfingers 7.125020000000008
lthumb -1.7320399873014702 50.76344970961037
rfemur 9.463726477061492 8.65270302502958 38.10142719235325
rtibia 22.785991651314124
rfoot -23.48802088977618 -7.045498263037766
rtoes 0.8331893757631432
lfemur -31.442552976792243 -0.37116578928959987 -10.297510227771465
ltibia 37.80232106548446
lfoot -4.932795821821812 1.617720706365326
ltoes -4.059297676023266
240
root 0 0 0 1.8115725493060757 -10.293801748288743 0.9377845407558327
lowerback -0.001708909425488292 -1.5819880351514914 -2.6915172564208145
upperback -0.534647737704022 -2.067371560515799 1.8645235244225578
thorax -0.4559557687029424 -1.0284675710086972 3.361070453563088
lowerneck -25.876353777191046 -1.9364273996790506 -7.562918225022409
upperneck 23.75189133593518 -0.2599471504495504 2.621700321816876
head 12.253180527245505 -0.6037740565781717 2.315035011021854
rclavicle -2.2973499712534248E-15 -2.1486692043412183E-15
rhumerus -30.425902142555277 -0.464042384529999 -82.41565787672911
rradius 31.98837125145082
rwrist 18.04578136920093
rhand -18.514105235271273 9.354720954513471
rfingers 7.125019999999939
rthumb 7.76834456287532 -20.422480779980592
lclavicle -5.077952246781587E-15 2.346982094891509E-15
lhumerus -21.995129192623573 -1.9724764519949778 92.1466981828669
lradius 61.61879980324038
lwrist 2.237729647323132
lhand -28.309622760971415 20.75100143526531
lfingers 7.125020000000009
lthumb -1.7219427342386888 50.74692742960076
rfemur 13.747227434664328 8.275208724355103 37.03893828188167
rtibia 26.968659061709754
rfoot -20.901578796081818 -5.441173687373435
rtoes -3.3167165589443863
lfemur -32.181037440811025 -3.4935196889953937 -9.220158994523402
ltibia 26.258034674615068
lfoot -4.05312992022373 3.609352643442394
ltoes -2.1475857186034464
241
root 0 0 0 1.8094277290081133 -10.324268597415806 0.9373952305358778
lowerback -0.05503702859306303 -1.5815466989012101 -2.704621166084287
upperback -0.558198658292597 -2.066686104556239 1.8327782154264542
thorax -0.4527220083245864 -1.02655635119371 3.3341808999771954
lowerneck -25.758070841063482 -1.926333458602266 -7.595744043372303
upperneck 24.113111077535166 -0.2473559504058659 2.6000307759694157
head 12.365196277790986 -0.6122943610387327 2.318405850827234
rclavicle -2.4901465229453095E-15 -2.3995329965032833E-15
rhumerus -30.434649129999716 -0.24378312090367427 -82.30485271640127
rradius 31.930270466284515
rwrist 17.995010702107045
rhand -18.5702325168444 9.402060905387913
rfingers 7.125019999999937
rthumb 7.713421695144389 -20.37307532510811
lclavicle -6.0276680713369275E-15 2.3192930339385842E-15
lhumerus -21.71977990655949 -1.3186759482163524 92.05504176231042
lradius 61.41311853721638
lwrist 2.0977180254317647
lhand -28.367029254079455 20.712415295549686
lfingers 7.12502000000001
lthumb -1.7755918718166521 50.70178161098286
rfemur 16.06416412134248 7.391101834145763 35.16686427951066
rtibia 32.91169818839308
rfoot -16.181091214685857 -3.479363478357375
rtoes -6.371465283931015
lfemur -31.217320478249587 -4.729361952746961 -8.815487122679501
ltibia 22.590259671344878
lfoot -3.9211099640309284 4.065919534110534
ltoes -2.6292512228644966
242
root 0 0 0 1.843217624630355 -10.079645570610097 0.9186365503749396
lowerback 0.12551540439556952 -1.5143003526775296 -2.852890422124139
upperback -0.6809519367188983 -1.96141807623455 1.945051155052766
thorax -0.6699527493536636 -0.970578676368211 3.536307861014482
lowerneck -24.906831264641028 -1.5795534046803943 -7.6429758334945435
upperneck 22.862715234556525 0.14966490835299373 2.790870124936532
head 11.760874810089268 -0.37139170269746014 2.4242607250604533
rclavicle 2.4342610685733447E-15 -3.691489217837248E-15
rhumerus -31.659178411134214 -2.84028540248113 -81.0060798207919
rradius 30.672351938932017
rwrist 18.705488911604917
rhand -17.97117323262983 9.507247077320805
rfingers 7.125019999999914
rthumb 8.29027478893845 -20.276291083092627
lclavicle -6.279702297405259E-15 -2.1376509308608186E-15
lhumerus -9.11959384444351 0.6633019496670745 85.80471187830518
lradius 66.37540007726855
lwrist -0.8520173091341152
lhand -31.930691227304827 22.889764970769928
lfingers 7.125019999999966
lthumb -5.167439208174882 52.69500310277794
rfemur 13.904188541234788 6.532744541557875 33.56448329201909
rtibia 37.074538799660274
rfoot -12.999952542693954 -2.8003674677096075
rtoes -5.5366139946674915
lfemur -28.380012854033 -4.227907806375167 -10.107063459430696
ltibia 26.664450241460617
lfoot -1.2157281661879402 0.7817331852917109
ltoes -2.8680647121147764
243
root 0 0 0 1.8008060902047722 -10.41866905679174 0.9332620410797441
lowerback -0.16371254129849033 -1.5961250673805514 -2.7311068024661456
upperback -0.6045249911268018 -2.0828412536925796 1.7700878492031387
thorax -0.4395235995501674 -1.032310505203972 3.284534236245211
lowerneck -25.4547997371822 -1.8699353555610956 -7.673454007671849
upperneck 25.037232248440933 -0.15424005106431216 2.499016597252718
head 12.649002484332401 -0.6123295542166239 2.31860597204816
rclavicle -6.5259617292937026E-15 3.667610344942656E-16
rhumerus -31.004907334637494 -1.3721381547284945 -81.77545482523573
rradius 31.432126296005496
rwrist 18.335214179869975
rhand -18.342135057996988 9.4092570283511
rfingers 7.125019999999932
rthumb 7.935157888418039 -20.35862531784145
lclavicle -6.337916498018425E-15 3.2924464643688986E-15
lhumerus -20.0072339003749 0.020662484191670494 91.37031826113653
lradius 61.430697746330836
lwrist 1.6400505229083855
lhand -28.75649226571703 21.01256492275299
lfingers 7.125020000000008
lthumb -2.1269519455554953 50.9762364831036
rfemur 3.110560954537478 3.3159069577160363 25.886133864742316
rtibia 57.47909574997354
rfoot 3.749595760353168 0.6797623597486302
rtoes 1.409937544289395
lfemur -24.617510916434615 -3.671263866669096 -14.71193531896212
ltibia 32.77289808095903
lfoot -1.3756593263736256 -3.004936749520202
ltoes 3.3804115164341635
244
root 0 0 0 1.805418100088648 -10.508048176280118 0.9249765811216458
lowerback -0.21406920376497784 -1.6292045718513852 -2.7148999777347997
upperback -0.5703357582037517 -2.125534490882374 1.7286702186294916
thorax -0.3733373832869654 -1.0556070133219635 3.232874957554685
lowerneck -25.393323574557066 -1.8607315912243336 -7.713079975511673
upperneck 25.69900635625374 -0.12034620532999862 2.391036416880177
head 12.868045102376563 -0.6256927042318229 2.2972913331273865
rclavicle -7.327856494038818E-15 3.7386134755556537E-16
rhumerus -31.351174403326073 -2.0484621721351113 -81.4438962900765
rradius 31.129680445480613
rwrist 18.539968826123125
rhand -18.199085165624144 9.415941547912182
rfingers 7.125019999999928
rthumb 8.073529384494286 -20.35677021564219
lclavicle -8.092606033508255E-15 3.092910241912789E-15
lhumerus -20.057468609967074 0.15274050820142548 91.36403117885965
lradius 61.193148274319
lwrist 1.7140844680985463
lhand -28.67157881288225 20.879387475179232
lfingers 7.125020000000007
lthumb -2.055220715110088 50.843882554708266
rfemur -6.273620686253453 2.108029926639184 24.020452644729197
rtibia 65.09782171361016
rfoot 9.526538009400332 -1.2620295678502775
rtoes 10.007814163381584
lfemur -20.591560825318123 -2.8716388993463635 -18.1134728349613
ltibia 36.8459466218292
lfoot -1.2786347765494295 -5.527370755283828
ltoes 6.368002251189729
245
root 0 0 0 1.8098069518192827 -10.535894833796013 0.921506814656161
lowerback -0.18850559258330368 -1.650790674062435 -2.69051169797792
upperback -0.5273975913555496 -2.1534588863228197 1.7262137091726255
thorax -0.338321922018751 -1.0716804469637269 3.217449604300654
lowerneck -25.476805738640582 -1.857417177176497 -7.6972713278369485
upperneck 25.7389742877082 -0.1022455834024969 2.3341156066170567
head 12.889211716743857 -0.6212786484212807 2.2765842217497094
rclavicle -6.2201820940468395E-15 1.7193142448106485E-15
rhumerus -31.863850889353156 -3.384816871006221 -81.06311125364054
rradius 30.727379004422147
rwrist 18.919265590498117
rhand -17.89381719999029 9.364244590252207
rfingers 7.125019999999924
rthumb 8.367782230185533 -20.401204197205217
lclavicle -7.935034248587988E-15 3.99622952854804E-15
lhumerus -20.718219170209363 -0.698782554651677 91.50785662461656
lradius 61.38952897995008
lwrist 2.159352928997275
lhand -28.348003763285988 21.06061241423599
lfingers 7.125020000000007
lthumb -1.7449031218195818 51.04923647731251
rfemur -10.419775875638496 1.144582000871412 23.759170678026365
rtibia 69.06089424676176
rfoot 6.21815982415273 -3.653511717114202
rtoes 11.24916557996108
lfemur -17.36258471332446 -2.4634003746366533 -20.861821221309054
ltibia 34.82347416110273
lfoot -4.075573337062185 -4.137232692188
ltoes 8.304236168320152
